<svg xmlns="http://www.w3.org/2000/svg" version="1.1" xmlns:xlink="http://www.w3.org/1999/xlink" xmlns:svgjs="http://svgjs.dev/svgjs" width="1500" height="1500" viewBox="0 0 1500 1500"><rect width="1500" height="1500" fill="#f9f9f9"></rect><g transform="matrix(0.6666666666666666,0,0,0.6666666666666666,248.44237538940803,189.33333333333348)"><svg viewBox="0 0 321 360" data-background-color="#f9f9f9" preserveAspectRatio="xMidYMid meet" height="1682" width="1500" xmlns="http://www.w3.org/2000/svg" xmlns:xlink="http://www.w3.org/1999/xlink"><g id="tight-bounds" transform="matrix(1,0,0,1,0.5000025000000505,0)"><svg viewBox="0 0 320 360" height="360" width="320"><g><svg></svg></g><g><svg viewBox="0 0 320 360" height="360" width="320"><g><path transform="translate(-19.44751,3.1739) scale(3.53591,3.53591)" d="M67.6 10.7c0.2 0 1.8 0.8 2.7 1.1-0.3 0.1-1-0.2-1.8-0.5 0.2 0 0.6 0.1 1 0.3-0.2-0.2-1.7-0.7-1.9-0.9M52.7 7.6c0.3-0.1 3.8 0.4 5.4 0.5 0.1-0.1-0.2-0.1-0.6-0.2 0.5-0.1 1.5 0.2 2.2 0.3-2.1 0.1-4.4-0.5-6.4-0.3-0.7 0-0.2-0.2-0.6-0.3M49.8 7.6c1.8 0 3.2 0 0.6 0.2-0.3-0.1-0.7-0.1-0.6-0.2M78.1 15.9c0.2 0 1 0.9 1.4 1.2-0.1 0.1-0.9-0.7-1.3-1 0.1 0.1 0 0-0.1-0.2M76.1 14.6c-0.8-0.7-1.1-0.7-1.2-1.1 0.7 0.4 1.2 0.8 1.2 1.1M63.2 8.3c0.1-0.1 0.3 0.1 0.8 0.2-0.6-0.1-0.5 0-0.3 0.2-0.7-0.1-0.9-0.2-0.7-0.4 0.4 0.2 0.5 0.1 0.2 0M34.8 9.5c0-0.1 0.4-0.3 0.7-0.4-0.3 0.2-0.2 0.3 0.3 0.1 0 0.1-0.6 0.3-1 0.5 0.2-0.1 0.4-0.4 0-0.2M65.2 7.3c-0.3 0.1-1.4-0.5-2.5-0.7-0.6-0.2 2.4 0.5 2.5 0.7M6.2 56.7c0.6 2.5 0.2 2.4 0 0M6.3 41.7c0.1-0.4 0.2-1.5 0.3-1.4-0.3 2.4-0.8 3.5-0.9 5.3 0.3-1.6-0.1 0.9-0.2 1.5 0.1 0.8 0.1-0.5 0.3-0.3 0.2 0.3-0.4 4.5-0.2 2.2-0.2 2.1 0 4.4 0.4 5-0.5 3.2 2 10.4 2.5 11.9 0.1 0.1 0-0.5 0.2-0.1 0.2 1.3 1.1 2.2 1.4 3.6 0.3 0.4 1.5 2.6 1.7 3.1 0.4 0.8 0.6 0.7 1 1.5 1.2 2.3 3.1 4.5 4.9 6.6 5.8 6.8 14.7 12.4 24.6 14.4 9.9 2.1 20.3 0.6 28.4-3.3 0.5-0.3 0.4-0.4 1-0.6 2.8-0.9 6.2-3.8 8.1-4.9 0.9-1 3.3-2.7 3.6-3.7 1.7-1.4 3.4-3.7 4.3-5.2 0.5-0.8 0.9-0.8 1.1-1.3-0.1 0 1.6-2.1 2.1-3.3-0.2 0-0.5 0.6-0.5 0 3.6-6.9 5.6-16.2 4.5-22.6 0.2 7.9-1.8 16.7-5.6 22.3-1.7 3.6-5.2 7.5-8.4 10.3-0.5 0.5-1 1.1-1.6 1.5-1.9 1.6-4 2.9-6.2 4.1-5.2 2.9-11 5.4-17.8 5.5 11.7-1 22.2-6.9 28-14.1-4.4 4.3-6.3 6-11.2 8.5-0.4 0.7-3.7 2.1-5.9 2.7 1.3-0.6 4-1.6 4.9-2.4-7.3 3.5-15.4 5.5-23 4.4 2.9 0 7 0.1 10.9-0.6 0.6-0.2 0.9-0.4 1.6-0.5 7.6-1.7 14.9-5.4 20.1-10.6-3 2.7-7.5 5.9-10.4 6.9 2.7-1.5 7.6-4.4 9.2-6.6-3.2 3.2-9.2 6.4-13 7.8-0.6 0.1 0.4-0.4-0.6 0-1.2 0.3-0.7 0.3-1 0.5-4.6 1.3-9.9 2.4-14.3 2-0.8-0.1-1.1-0.3-1.8-0.3-0.8-0.1-1.5-0.1-2.4-0.1-3.5-0.4-7.3-1.8-10.1-3-1.5-0.7-3-1.2-4.5-2.1-1.2-0.7-2.2-1.5-3.2-2.3-3.8-2.8-7-5.6-10-9.6-5.4-7.5-8.2-16.9-7.8-26.2 0.4-9.3 4.1-18.4 10-25.1-0.3 0.3 0.4-0.7 1-1.3 0 0.2-0.1 0.5 0.6-0.2 0.6-0.7-0.2-0.2 0.1-0.6 6.2-6.8 17-12.3 28.1-12.5 0.4-0.3 1.1-0.7 1.9-0.5 0 0.1-0.5 0.1-0.5 0.1 1.1-0.1 2.1-0.1 2.6 0.1 0.1-0.1-0.4-0.2 0-0.2 0.7 0.2 0.9 0 1.3 0.2-0.3 0-0.6 0-0.8 0.1 2.5 0 4.1 0.6 6.6 0.8-1.3-0.3-1.6-0.3-2.6-0.6 1.1 0.2 1.6 0.4 2.1 0.3-0.2 0-0.1-0.3 0.1-0.2 2 0.5 2.2 0.7 4.3 1.4 0.2-0.2-0.9-0.3-1.2-0.6 2 0.7 3.8 1.2 5 2-0.4-0.3-1.6-0.7-2.5-1.1-0.1 0.1 0.3 0.2 0.4 0.4-1-0.5-2.4-1-3.8-1.2 1.2 0.3 2 0.7 2.5 0.9-1.1-0.2-2.5-0.9-4.1-1.2 2.6 0.8 7.5 2.6 10.5 4.2-1.1-0.7-2.4-1.2-3.1-1.6 0.6 0.1 1.3 0.5 1.3 0.3 0.7 0.3 1.6 1 2.1 1.1-0.9-0.6-2.7-1.5-3.3-1.8 7.5 3.4 14.2 9.1 18.5 16.4 0.4 0.7 1 2.3 1.5 2.5-0.1-0.5-0.5-0.8-0.9-1.6 0.2 0 0.2-0.3 0-0.6-0.4-0.5 0 0.4-0.4-0.1-1.8-3.3-4-6.2-7.4-9.4 1.9 1.8 0.5 0.5 0.1-0.1 2.6 2.3 5.6 6.2 6.9 8.2-0.2-0.3-0.3-0.5-0.2-0.5 2.4 4.1 3.9 7.8 5.4 13.1 0.1 0.1 0-0.4 0.2-0.1 1 4.2 1.3 7.7 1.2 10.9 0.8-5.4-1-13.8-4.2-20.4-0.4-0.8-0.4-0.2-0.8-1.1 0-0.3-0.3-0.9-0.5-1.3-4-6.6-8.9-11.3-14.7-15 0.4 0.2 1.2 0.8 1.2 0.7-10.8-7.1-23.3-8.1-33.6-5.9-0.7 0.3-1 0.6-1.8 1 1.5-0.5 2.4-0.6 3.8-0.9 0.3-0.3-1.3 0.1-0.6-0.2 0.1 0.1 1.4-0.2 1.7-0.1 0 0.1-0.4 0.2-0.5 0.3 3.3-0.7 6.7-0.8 9.6-0.6-1.7 0.1-4.8-0.2-5.8 0.3 1-0.1 2.4-0.2 3.3-0.1-1.2 0-3.4 0.1-4.4 0.2-0.1-0.1 1.6-0.3 0.5-0.3-0.5 0.1-1.3 0.1-1.6 0.4-8.6 0.8-17 5.3-22.9 10.6-1.2 1-2.6 2.1-3.5 3.2-2.2 2.5-3.6 5-5.2 7.2 1-2.1 3.2-5.3 5.8-8 2.6-2.7 5.4-5 6.9-6.2 0 0.4 2.4-1.5 3.3-2.1-0.6 0.5 0.4-0.2 0.6-0.1 3.2-1.9 5.8-2.6 8.7-3.7-0.7 0.2-1.3 0.4-1.4 0.3 0.7-0.2 1.1-0.4 1-0.5-2.8 0.8-7.2 2.7-10.7 4.8 6.3-4.3 14.3-6.9 22.2-7 7.9-0.2 15.6 1.8 21.7 5 4.1 1.8 8 5.1 11.1 8.3 0.9 0.8 0.2-0.2 1.5 1.2-0.4-0.2-0.7-0.4-0.2 0.2 0.8 0.9-0.2-0.7 1.1 0.9-0.1 0-0.5-0.5-0.5-0.3 3.5 3.1 6.2 8.7 7.8 12.4-0.4-1.5-1.4-3.6-2.2-5.1 2.4 4.4 3.2 7 4.2 10.9 0.4 0.3-0.2-1.4 0.2-0.6 0.1 0.6 0.2 2.5 0.6 2.8-0.3-1.9-0.8-4.2-1.2-4.6 0.3 0.2-0.5-2.3-1-2.9-0.2-1.6-1.6-4.4-2.8-6.5-4.3-8.4-12-15.3-20.6-19.1 0-0.2-0.5-0.4-0.7-0.6-8.5-3.6-18.7-4.6-28.5-2.3-9.9 2.4-19.2 8.1-25.8 16.3 0.3-1 2.8-2.9 2.9-3.7-2.9 3.1-6 7.2-8.1 11.6-2.2 4.4-3.4 8.9-3.9 12.2" fill="#030303" fill-rule="nonzero" stroke="none" stroke-width="1" stroke-linecap="butt" stroke-linejoin="miter" stroke-miterlimit="10" stroke-dasharray="" stroke-dashoffset="0" font-family="none" font-weight="none" font-size="none" text-anchor="none" style="mix-blend-mode: normal" data-fill-palette-color="tertiary"></path></g><g transform="matrix(1,0,0,1,48.000000000000014,107.50599796424976)"><svg viewBox="0 0 223.99999999999997 144.98800407150048" height="144.98800407150048" width="223.99999999999997"><g><svg viewBox="0 0 223.99999999999997 144.98800407150048" height="144.98800407150048" width="223.99999999999997"><g transform="matrix(1,0,0,1,0,107.87822363237873)"><svg viewBox="0 0 223.99999999999997 37.10978043912175" height="37.10978043912175" width="223.99999999999997"><g id="textblocktransform"><svg viewBox="0 0 223.99999999999997 37.10978043912175" height="37.10978043912175" width="223.99999999999997" id="textblock"><g><svg viewBox="0 0 223.99999999999997 37.10978043912175" height="37.10978043912175" width="223.99999999999997"><g transform="matrix(1,0,0,1,0,0)"><svg width="223.99999999999997" viewBox="3.91 -35.86 220.15 36.47" height="37.10978043912175" data-palette-color="#030303"><g class="wordmark-text-0" data-fill-palette-color="primary" id="text-0"><path d="M22.22 0L9.94 0Q7.42 0 6.12-0.63 4.81-1.27 4.36-2.71 3.91-4.15 3.91-6.54L3.91-6.54 3.91-28.47Q3.91-30.91 4.36-32.34 4.81-33.76 6.12-34.39 7.42-35.01 9.94-35.01L9.94-35.01 21.41-35.01Q22-35.01 22.29-34.81L22.29-34.81Q22.92-34.38 23.61-33.76 24.29-33.15 25.05-32.3L25.05-32.3Q25.29-31.98 25.29-31.79L25.29-31.79Q25.29-31.57 25.05-31.3L25.05-31.3Q24.29-30.44 23.61-29.83 22.92-29.22 22.29-28.78L22.29-28.78Q21.95-28.59 21.41-28.59L21.41-28.59 14.58-28.59Q12.96-28.59 12.38-27.91 11.79-27.22 11.79-25.56L11.79-25.56 11.79-20.83 20.56-20.83Q21.14-20.83 21.44-20.63L21.44-20.63Q22.07-20.19 22.75-19.58 23.44-18.97 24.19-18.12L24.19-18.12Q24.44-17.8 24.44-17.6L24.44-17.6Q24.44-17.38 24.19-17.11L24.19-17.11Q23.44-16.26 22.75-15.65 22.07-15.04 21.44-14.6L21.44-14.6Q21.09-14.4 20.56-14.4L20.56-14.4 11.79-14.4 11.79-9.47Q11.79-7.84 12.38-7.13 12.96-6.42 14.58-6.42L14.58-6.42 22.22-6.42Q22.8-6.42 23.1-6.23L23.1-6.23Q23.73-5.79 24.41-5.18 25.1-4.57 25.85-3.71L25.85-3.71Q26.1-3.39 26.1-3.2L26.1-3.2Q26.1-2.98 25.85-2.71L25.85-2.71Q25.1-1.86 24.41-1.25 23.73-0.63 23.1-0.2L23.1-0.2Q22.75 0 22.22 0L22.22 0ZM44.75 0L37.25 0Q34.74 0 33.43-0.63 32.13-1.27 31.67-2.71 31.22-4.15 31.22-6.54L31.22-6.54 31.22-28.47Q31.22-30.91 31.67-32.34 32.13-33.76 33.43-34.39 34.74-35.01 37.25-35.01L37.25-35.01 44.75-35.01Q50-35.01 53.94-33.45 57.88-31.88 60.08-28.16 62.28-24.44 62.28-17.94L62.28-17.94Q62.28-11.45 60.08-7.51 57.88-3.56 53.94-1.78 50 0 44.75 0L44.75 0ZM42.97-28.59L41.89-28.59Q40.28-28.59 39.69-27.91 39.11-27.22 39.11-25.56L39.11-25.56 39.11-9.45Q39.11-7.81 39.69-7.1 40.28-6.4 41.89-6.4L41.89-6.4 43.02-6.4Q48.24-6.4 51.11-8.96 53.98-11.52 53.98-17.85L53.98-17.85Q53.98-22.07 52.67-24.4 51.36-26.73 48.9-27.66 46.43-28.59 42.97-28.59L42.97-28.59ZM83.95-12.45L83.95-1.29Q83.95-0.56 83.65-0.28 83.34 0 82.61 0L82.61 0 77.41 0Q76.68 0 76.37-0.28 76.07-0.56 76.07-1.29L76.07-1.29 76.07-12.3 71.21-17.94Q69.48-19.97 68.29-21.58 67.11-23.19 66.52-24.91 65.94-26.64 65.94-28.96L65.94-28.96 65.94-31.1Q65.94-31.81 66.18-32.18L66.18-32.18Q67.28-33.79 69.26-35.57L69.26-35.57Q69.62-35.86 69.92-35.86L69.92-35.86Q70.21-35.86 70.53-35.57L70.53-35.57Q71.6-34.64 72.33-33.8 73.07-32.96 73.6-32.18L73.6-32.18Q73.85-31.79 73.85-31.1L73.85-31.1 73.85-28.98Q73.85-27.39 74.78-25.46 75.7-23.54 77.9-21.22L77.9-21.22 80.27-18.73 82.59-21.22Q84.57-23.34 85.6-25.27 86.64-27.2 86.64-28.96L86.64-28.96 86.64-31.1Q86.64-31.81 86.88-32.18L86.88-32.18Q87.93-33.76 89.86-35.57L89.86-35.57Q90.23-35.86 90.47-35.86L90.47-35.86Q90.77-35.86 91.08-35.57L91.08-35.57Q92.11-34.64 92.83-33.8 93.55-32.96 94.06-32.18L94.06-32.18Q94.31-31.79 94.31-31.1L94.31-31.1 94.31-28.96Q94.31-26.27 93.13-23.82 91.96-21.36 89.16-18.24L89.16-18.24 83.95-12.45ZM112.93-11.69L112.93-11.69Q112.3-11.69 111.86-12.01L111.86-12.01Q111.39-12.33 110.76-12.92 110.12-13.5 109.34-14.36L109.34-14.36Q109.05-14.7 109.05-14.97L109.05-14.97Q109.05-15.23 109.34-15.58L109.34-15.58Q110.86-17.29 112.1-18.09L112.1-18.09Q112.39-18.29 112.93-18.29L112.93-18.29Q114.59-18.29 115.8-19.53 117.01-20.78 116.96-23.56L116.96-23.56Q116.94-26.56 115.48-27.76 114.03-28.96 111.52-28.96L111.52-28.96 110.34-28.96Q108.73-28.96 108.15-28.27 107.56-27.59 107.56-25.93L107.56-25.93 107.56-1.29Q107.56-0.56 107.26-0.28 106.95 0 106.22 0L106.22 0 101.02 0Q100.29 0 99.98-0.28 99.68-0.56 99.68-1.29L99.68-1.29 99.68-28.47Q99.68-30.91 100.13-32.34 100.58-33.76 101.88-34.39 103.19-35.01 105.71-35.01L105.71-35.01 111.52-35.01Q118.52-35.01 121.89-32.26 125.26-29.52 125.26-23.85L125.26-23.85Q125.26-19.6 123.49-16.92 121.72-14.23 118.9-12.96 116.08-11.69 112.93-11.69ZM138.52-25.93L138.52-1.29Q138.52-0.56 138.21-0.28 137.91 0 137.17 0L137.17 0 131.97 0Q131.24 0 130.93-0.28 130.63-0.56 130.63-1.29L130.63-1.29 130.63-28.47Q130.63-30.91 131.08-32.34 131.53-33.76 132.84-34.39 134.15-35.01 136.66-35.01L136.66-35.01 143.13-35.01Q155.87-35.01 155.87-25.22L155.87-25.22Q155.87-22.24 154.87-20.34 153.87-18.43 152.38-17.37 150.89-16.31 149.45-15.77L149.45-15.77 149.45-15.65Q151.09-14.58 152.57-12.83 154.04-11.08 155.24-9.05 156.44-7.01 157.27-5.02 158.1-3.03 158.41-1.46L158.41-1.46Q158.56-0.73 158.43-0.37 158.29 0 157.58 0L157.58 0 151.94 0Q151.31 0 150.83-0.27 150.36-0.54 149.97-1.51L149.97-1.51Q148.11-6.18 145.69-9.12 143.28-12.06 141.03-13.84L141.03-13.84Q139.59-14.99 139.59-15.48L139.59-15.48Q139.59-15.87 140.05-16.55L140.05-16.55Q140.35-16.97 140.91-17.55 141.47-18.14 141.88-18.43L141.88-18.43Q142.3-18.73 142.56-18.8 142.81-18.87 143.35-18.87L143.35-18.87Q145.16-18.87 146.36-20.12 147.57-21.36 147.57-24.05L147.57-24.05Q147.57-26.59 146.29-27.77 145.01-28.96 142.76-28.96L142.76-28.96 141.3-28.96Q139.69-28.96 139.1-28.27 138.52-27.59 138.52-25.93L138.52-25.93ZM178.26 0.61L178.26 0.61Q173.18 0.61 169.42-1.34 165.66-3.3 163.6-7.23 161.54-11.16 161.54-17.04L161.54-17.04Q161.54-26.39 166.1-30.99 170.67-35.6 178.82-35.6L178.82-35.6Q186.46-35.6 190.91-31.09 195.35-26.59 195.35-17.75L195.35-17.75Q195.35-11.5 193.27-7.43 191.2-3.37 187.37-1.38 183.53 0.61 178.26 0.61ZM178.41-5.98L178.41-5.98Q182.8-5.98 184.92-9.13 187.05-12.28 187.05-17.31L187.05-17.31Q187.05-23.14 185.05-26.07 183.04-29 178.6-29L178.6-29Q169.84-29 169.84-17.46L169.84-17.46Q169.84-12.3 171.95-9.14 174.06-5.98 178.41-5.98ZM210.92 0.59L210.92 0.59Q207.82 0.59 205.78 0.02 203.74-0.54 202.51-1.38 201.28-2.22 200.62-3.05L200.62-3.05Q200.4-3.37 200.23-3.66 200.06-3.96 199.99-4.32L199.99-4.32Q199.89-4.81 199.79-5.6 199.69-6.4 199.77-7.45L199.77-7.45Q199.79-7.89 199.94-8.06L199.94-8.06Q200.11-8.25 200.5-8.35L200.5-8.35Q201.21-8.52 202.34-8.65 203.48-8.79 203.96-8.79L203.96-8.79Q204.48-8.79 204.79-8.59 205.11-8.4 205.55-7.93L205.55-7.93Q206.04-7.42 207.24-6.63 208.43-5.83 210.92-5.83L210.92-5.83Q213.32-5.83 214.54-6.84 215.76-7.84 215.76-9.62L215.76-9.62Q215.76-10.57 215.18-11.41 214.61-12.26 213.1-13.1 211.58-13.94 208.77-14.87L208.77-14.87Q204.14-16.43 202.08-18.75 200.03-21.07 200.03-25.2L200.03-25.2Q200.03-28.61 201.69-30.91 203.35-33.2 206.28-34.38 209.21-35.55 213.05-35.55L213.05-35.55Q216-35.55 217.94-34.85 219.88-34.16 220.96-33.29 222.03-32.42 222.35-31.88L222.35-31.88Q222.54-31.57 222.6-31.41 222.67-31.25 222.69-30.98L222.69-30.98Q222.76-30.22 222.74-29.3 222.71-28.37 222.57-27.2L222.57-27.2Q222.49-26.81 222.3-26.66L222.3-26.66Q222.13-26.54 221.76-26.54L221.76-26.54Q219.39-26.49 218.1-26.78L218.1-26.78Q217.59-26.9 217.42-27.03 217.25-27.15 216.98-27.42L216.98-27.42Q216.59-27.88 215.74-28.5 214.9-29.13 213.05-29.13L213.05-29.13Q210.48-29.13 209.41-27.97 208.33-26.81 208.33-25.37L208.33-25.37Q208.33-23.66 209.92-22.69 211.51-21.73 214.93-20.51L214.93-20.51Q217.78-19.51 219.83-18.33 221.88-17.16 222.97-15.33 224.06-13.5 224.06-10.5L224.06-10.5Q224.06-6.76 222.34-4.3 220.61-1.83 217.65-0.62 214.68 0.59 210.92 0.59Z" fill="#030303" data-fill-palette-color="primary"></path></g></svg></g></svg></g></svg></g></svg></g><g transform="matrix(1,0,0,1,66.82161671075673,0)"><svg viewBox="0 0 90.35676657848653 90.35676657848653" height="90.35676657848653" width="90.35676657848653"><g><svg></svg></g><g id="icon-0"><svg viewBox="0 0 90.35676657848653 90.35676657848653" height="90.35676657848653" width="90.35676657848653"><g><path d="M0 45.178c0-24.951 20.227-45.178 45.178-45.178 24.951 0 45.178 20.227 45.179 45.178 0 24.951-20.227 45.178-45.179 45.179-24.951 0-45.178-20.227-45.178-45.179zM45.178 87.01c23.103 0 41.832-18.729 41.832-41.832 0-23.103-18.729-41.832-41.832-41.831-23.103 0-41.832 18.729-41.831 41.831 0 23.103 18.729 41.832 41.831 41.832z" data-fill-palette-color="accent" fill="#030303" stroke="transparent"></path></g><g transform="matrix(1,0,0,1,19.033736033545136,30.364902349475642)"><svg viewBox="0 0 52.28929451139626 29.62696187953524" height="29.62696187953524" width="52.28929451139626"><g><svg xmlns="http://www.w3.org/2000/svg" xmlns:xlink="http://www.w3.org/1999/xlink" version="1.1" x="0" y="0" viewBox="0.178 21.771 99.644 56.458" enable-background="new 0 0 100 100" xml:space="preserve" height="29.62696187953524" width="52.28929451139626" class="icon-dxe-0" data-fill-palette-color="accent" id="dxe-0"><g fill="#030303" data-fill-palette-color="accent"><path d="M43.706 74.945C43.706 75.035 43.946 75.244 44.344 75.244H55.684C56.08 75.244 56.321 75.035 56.321 74.945 56.321 74.552 56.639 74.232 57.033 74.232H90.344V25.038A3.27 3.27 0 0 0 87.077 21.771H12.95A3.27 3.27 0 0 0 9.684 25.038V74.233H42.995A0.71 0.71 0 0 1 43.706 74.945M11.7 25.038C11.7 24.349 12.261 23.788 12.95 23.788H87.076C87.765 23.788 88.327 24.349 88.327 25.038V72.799H11.7z" fill="#030303" data-fill-palette-color="accent"></path><path d="M94.78 78.229C98.006 78.229 99.796 76.971 99.796 76.971L99.822 76.967V74.946H57.032C57.032 75.501 56.426 75.956 55.683 75.956H44.343C43.601 75.956 42.994 75.501 42.994 74.946H0.204V76.967L0.178 76.971S1.969 78.229 5.195 78.229z" fill="#030303" data-fill-palette-color="accent"></path></g></svg></g></svg></g></svg></g></svg></g><g></g></svg></g></svg></g></svg></g><defs></defs></svg><rect width="320" height="360" fill="none" stroke="none" visibility="hidden"></rect></g></svg></g></svg>